# xmcd
#
# Track frame offsets: 
#        150
#        11939
#        22288
#        36988
#        52221
#        66313
#        79139
#        93089
#        106443
#        120329
#        134911
#        146488
#        166475
#        181428
#
# Disc length: 2599 seconds
#
# Revision: 0
# Processed by: cddbd v1.5.2PL0 Copyright (c) Steve Scherf et al.
# Submitted via: ExactAudioCopy v1.0b1
#
DISCID=d20a250e
DTITLE=Mickey Stevenson - Here I Am
DYEAR=1972
DGENRE=Soul
TTITLE0=Here I Am
TTITLE1=Joe Poor (Loves Daphne Elizabeth Rich)
TTITLE2=Trouble's A Loser
TTITLE3=Rocky Raccoon
TTITLE4=Knock On Any Door
TTITLE5=Forty Days And Forty Nights
TTITLE6=Lonnie's Face
TTITLE7=Where's That Smile
TTITLE8=What Could Be Better
TTITLE9=Gonna Be Alright
TTITLE10=Stormy
TTITLE11=Salliey
TTITLE12=I Need You So
TTITLE13=I'm On My Way Back To You
EXTD=
EXTT0=
EXTT1=
EXTT2=
EXTT3=
EXTT4=
EXTT5=
EXTT6=
EXTT7=
EXTT8=
EXTT9=
EXTT10=
EXTT11=
EXTT12=
EXTT13=
PLAYORDER=
